<?xml version="1.0" standalone="no"?>
<!DOCTYPE svg PUBLIC "-//W3C//DTD SVG 20010904//EN"
 "http://www.w3.org/TR/2001/REC-SVG-20010904/DTD/svg10.dtd">
<svg version="1.0" xmlns="http://www.w3.org/2000/svg"
 width="287.000000pt" height="287.000000pt" viewBox="0 0 287.000000 287.000000"
 preserveAspectRatio="xMidYMid meet">
<metadata>
Created by potrace 1.14, written by Peter Selinger 2001-2017
</metadata>
<g transform="translate(0.000000,287.000000) scale(0.100000,-0.100000)"
fill="#000000" stroke="none">
<path d="M1988 2066 c-13 -13 -32 -34 -43 -48 -11 -13 -29 -28 -40 -32 -19 -7
-18 -10 15 -37 50 -43 176 -129 188 -129 6 0 12 -4 14 -8 2 -4 20 -17 41 -29
l37 -22 0 34 c0 18 -4 37 -10 40 -5 3 -10 28 -10 54 0 47 -20 103 -35 101 -4
-1 -13 9 -19 22 -6 12 -21 27 -33 33 -11 6 -27 16 -34 21 -29 23 -48 23 -71 0z"/>
<path d="M850 2071 c-51 -27 -61 -31 -75 -31 -35 0 -65 -31 -65 -67 0 -31 2
-34 16 -22 14 11 18 10 29 -5 13 -17 35 -101 35 -131 0 -21 -19 -19 -27 3 -4
9 -20 37 -37 61 -28 41 -30 43 -39 24 -7 -17 -2 -31 24 -70 18 -26 39 -53 47
-59 31 -23 3 -74 -89 -170 -49 -51 -89 -97 -89 -102 0 -6 -9 -14 -20 -17 -28
-9 -46 -45 -29 -56 14 -9 12 -10 -13 -13 -7 0 -14 -11 -16 -23 -2 -13 -8 -23
-13 -23 -5 0 -9 -7 -9 -15 0 -9 -9 -25 -20 -37 -11 -12 -20 -32 -20 -45 0 -13
-3 -23 -7 -23 -11 0 -33 -50 -33 -71 0 -10 -5 -21 -10 -24 -6 -3 -10 -19 -10
-35 0 -16 -5 -32 -10 -35 -6 -3 -10 -21 -10 -39 0 -18 -4 -46 -9 -62 -5 -16
-12 -50 -16 -76 -3 -26 -13 -54 -21 -62 -8 -8 -14 -22 -14 -31 0 -8 -7 -26
-15 -39 -9 -13 -15 -28 -14 -32 3 -13 -9 -39 -48 -102 -18 -31 -33 -66 -33
-78 0 -12 -10 -35 -23 -51 -12 -15 -28 -39 -34 -53 -15 -34 -53 -121 -63 -145
-4 -11 -22 -51 -39 -89 -25 -56 -31 -80 -30 -135 1 -36 3 -58 6 -48 2 9 8 17
13 17 5 0 13 12 18 28 7 18 11 21 11 9 2 -33 26 -11 27 24 1 54 12 69 49 69
35 0 45 13 45 56 0 13 4 32 9 42 4 9 13 32 19 49 8 27 7 35 -5 42 -11 6 -12
10 -4 15 14 9 14 43 0 48 -13 4 4 52 27 76 15 15 16 14 9 -7 -5 -17 -4 -21 4
-16 7 4 18 2 26 -5 20 -17 24 -3 30 115 5 106 16 145 34 117 7 -11 9 -11 14 2
4 10 23 16 64 18 l58 3 10 108 c8 84 14 112 28 121 9 7 17 20 17 28 0 16 34
31 44 20 3 -3 6 -41 6 -84 0 -71 2 -78 20 -78 19 0 20 -6 18 -115 -2 -97 -5
-119 -20 -132 -10 -9 -18 -26 -18 -39 0 -13 -4 -25 -9 -28 -4 -3 -11 -19 -14
-35 -4 -21 -13 -30 -29 -33 -18 -2 -24 -11 -28 -38 -4 -31 -9 -36 -40 -40 -34
-5 -35 -7 -44 -60 -5 -30 -15 -59 -22 -65 -7 -5 -14 -23 -16 -40 -2 -24 -8
-31 -33 -35 -29 -5 -30 -7 -33 -68 -2 -34 -7 -62 -12 -62 -6 0 -10 -6 -10 -14
0 -7 -7 -19 -15 -26 -8 -7 -15 -16 -15 -21 0 -5 370 -9 853 -9 603 0 848 3
837 11 -11 8 -12 12 -3 16 7 2 13 9 13 14 0 13 -34 11 -48 -3 -9 -9 -12 -9
-12 0 0 7 -13 12 -30 12 -16 0 -30 5 -30 10 0 6 23 10 50 10 43 0 50 3 50 20
0 11 6 20 13 20 8 0 24 11 37 25 13 14 32 25 42 25 20 0 48 22 48 37 0 16 78
83 97 83 10 0 24 5 31 12 16 16 15 48 0 48 -7 0 -2 6 11 13 13 6 29 27 37 44
13 32 12 33 -16 48 -32 16 -71 85 -58 100 4 6 23 28 42 50 l35 39 10 -28 c6
-15 11 -31 11 -35 0 -4 9 -16 20 -26 12 -11 20 -31 20 -51 0 -42 14 -50 40
-24 11 11 25 18 31 14 14 -8 69 15 69 30 0 20 -38 74 -69 97 -17 13 -31 28
-31 35 0 7 -3 14 -7 16 -5 2 -20 19 -34 38 -24 32 -25 37 -11 58 8 13 25 22
39 22 13 0 35 11 49 25 30 30 26 56 -23 128 -20 29 -39 63 -45 76 l-9 25 -19
-28 c-10 -16 -21 -45 -25 -65 -13 -71 -13 -71 -146 -70 -66 0 -126 -4 -132 -9
-32 -25 -75 -21 -141 13 -36 19 -71 35 -77 35 -17 0 -101 61 -137 100 -26 28
-31 41 -27 65 3 17 10 77 16 135 5 58 17 125 25 150 12 39 20 47 59 64 33 13
52 29 70 60 14 24 25 51 25 60 0 16 7 17 60 11 51 -6 60 -5 60 9 0 13 5 14 26
6 14 -6 36 -10 50 -10 15 0 24 -6 24 -15 0 -12 14 -15 64 -15 36 0 68 5 72 11
3 6 17 8 30 5 17 -5 24 -2 24 8 0 7 16 21 35 30 40 20 44 41 14 80 l-20 26 34
0 c47 0 59 -18 55 -82 -3 -47 -6 -53 -28 -58 -14 -3 -47 -17 -75 -30 -38 -18
-72 -25 -142 -28 -82 -4 -92 -6 -97 -25 -3 -12 -3 -24 0 -27 3 -3 49 -5 102
-5 94 0 100 1 190 45 103 50 107 55 106 149 0 47 -4 57 -31 81 -27 24 -42 29
-119 35 -106 8 -257 -9 -299 -34 -16 -9 -40 -36 -53 -59 -19 -34 -29 -42 -53
-42 -24 0 -29 4 -29 25 0 13 -13 39 -29 57 -21 25 -27 40 -24 63 8 57 -14 70
-117 72 -84 1 -170 12 -260 34 -19 5 -66 29 -105 54 -38 25 -88 50 -110 56
-47 13 -159 68 -163 80 -2 5 -12 9 -22 9 -10 0 -22 5 -25 10 -7 12 -63 12 -85
1z m880 -530 c0 -6 -11 -23 -25 -38 l-26 -28 22 38 c21 37 29 45 29 28z m-950
-348 c0 -22 -2 -25 -10 -13 -13 20 -13 40 0 40 6 0 10 -12 10 -27z m-413 -335
c-3 -7 -5 -2 -5 12 0 14 2 19 5 13 2 -7 2 -19 0 -25z m1808 -37 c3 -6 -11 -13
-32 -16 -21 -3 -54 -10 -73 -15 -40 -11 -142 -2 -134 11 3 5 35 10 72 10 37 1
81 5 97 9 44 11 63 11 70 1z m-1536 -103 c-8 -14 -14 -18 -17 -10 -4 13 17 46
25 38 3 -2 -1 -15 -8 -28z m-381 -150 c-3 -36 -15 -42 -31 -17 -13 21 -2 49
18 49 12 0 15 -8 13 -32z m-191 -470 c-3 -7 -5 -2 -5 12 0 14 2 19 5 13 2 -7
2 -19 0 -25z"/>
<path d="M1896 2025 c-4 -10 1 -15 14 -15 13 0 18 5 14 15 -4 8 -10 15 -14 15
-4 0 -10 -7 -14 -15z"/>
<path d="M1865 1990 c4 -6 11 -8 16 -5 14 9 11 15 -7 15 -8 0 -12 -5 -9 -10z"/>
<path d="M1933 1334 c-47 -17 -109 -80 -119 -121 -4 -15 -2 -46 4 -70 7 -24
12 -52 12 -63 0 -11 15 -37 34 -58 29 -32 45 -40 100 -51 37 -7 69 -17 72 -22
9 -15 31 -10 99 21 36 17 70 30 75 30 5 0 22 17 37 38 15 20 31 39 36 40 4 2
7 40 7 85 0 80 -1 83 -31 107 -17 14 -40 34 -50 44 -33 34 -202 46 -276 20z"/>
<path d="M2843 975 c-13 -19 -23 -41 -23 -49 0 -8 -4 -18 -10 -21 -5 -3 -10
-15 -10 -26 0 -10 -4 -19 -10 -19 -5 0 -10 -8 -10 -18 0 -10 -11 -28 -24 -39
-13 -11 -37 -58 -54 -104 -16 -46 -37 -97 -46 -114 -9 -16 -16 -36 -16 -43 0
-15 61 -126 72 -130 4 -2 8 -10 8 -18 0 -8 5 -14 10 -14 6 0 10 6 10 14 0 8
-4 18 -10 21 -16 10 -12 41 7 56 15 13 16 11 10 -18 -4 -22 -2 -33 8 -37 12
-4 55 -83 55 -100 0 -4 9 -15 20 -26 21 -21 27 -66 10 -72 -13 -4 -1 -45 16
-52 12 -5 14 59 14 419 0 234 -1 425 -2 425 -2 0 -13 -16 -25 -35z"/>
<path d="M2741 354 c0 -11 3 -14 6 -6 3 7 2 16 -1 19 -3 4 -6 -2 -5 -13z"/>
<path d="M2780 304 c0 -8 5 -12 10 -9 6 3 10 10 10 16 0 5 -4 9 -10 9 -5 0
-10 -7 -10 -16z"/>
<path d="M2800 240 c0 -11 5 -20 10 -20 6 0 10 9 10 20 0 11 -4 20 -10 20 -5
0 -10 -9 -10 -20z"/>
<path d="M164 135 c-10 -26 1 -35 13 -10 6 14 7 25 2 25 -5 0 -12 -7 -15 -15z"/>
</g>
</svg>
